<svg xmlns="http://www.w3.org/2000/svg" version="1.1" xmlns:xlink="http://www.w3.org/1999/xlink" xmlns:svgjs="http://svgjs.dev/svgjs" width="1000" height="1000" viewBox="0 0 1000 1000"><rect width="1000" height="1000" fill="#ffffff"></rect><g transform="matrix(0.7,0,0,0.7,149.57575757575756,282.1265587044535)"><svg viewBox="0 0 396 247" data-background-color="#046380" preserveAspectRatio="xMidYMid meet" height="623" width="1000" xmlns="http://www.w3.org/2000/svg" xmlns:xlink="http://www.w3.org/1999/xlink"><g id="tight-bounds" transform="matrix(1,0,0,1,0.2400000000000091,-0.09999999999999432)"><svg viewBox="0 0 395.52 247.2" height="247.2" width="395.52"><g><svg></svg></g><g><svg viewBox="0 0 395.52 247.2" height="247.2" width="395.52"><mask id="25f7a030-5322-41ec-a578-95518f0a1e12"><rect width="395.52" height="247.2" fill="white"></rect><g transform="matrix(1,0,0,1,2.842170943040401e-14,78.01284949434861)" id="clone"><svg viewBox="0 0 395.5199999999999 91.17430101130277" height="91.17430101130277" width="395.5199999999999"><g><svg viewBox="0 0 395.5199999999999 91.17430101130277" height="91.17430101130277" width="395.5199999999999"><g><svg viewBox="0 0 395.5199999999999 91.17430101130277" height="91.17430101130277" width="395.5199999999999"><g><svg viewBox="0 0 395.5199999999999 91.17430101130277" height="91.17430101130277" width="395.5199999999999"><g id="SvgjsG1147"><svg viewBox="0 0 395.5199999999999 91.17430101130277" height="91.17430101130277" width="395.5199999999999" id="SvgjsSvg1146"><g><svg viewBox="0 0 395.5199999999999 91.17430101130277" height="91.17430101130277" width="395.5199999999999"><g transform="matrix(1,0,0,1,0,0)"><svg width="395.5199999999999" viewBox="-0.7000000000000002 -32.5 169.07999999999998 39.75" height="91.17430101130277" data-palette-color="#ffffff"><path d="M35.85-16.85L35.85-16.85Q35.85-9.4 30.7-3.53 25.55 2.35 19.25 3.8L19.25 3.8Q17.4 4.25 15.7 4.25L15.7 4.25Q11.05 4.25 8 0.8 4.95-2.65 4.95-7.9L4.95-7.9Q4.95-14.85 9.7-19.4L9.7-19.4Q12.7-22.3 17.05-23.35L17.05-23.35Q18.35-23.6 19.45-23.6L19.45-23.6Q21.95-23.6 23.1-22.43 24.25-21.25 23.75-21.25L23.75-21.25 22.95-21.65Q21.9-22.05 21.13-22.05 20.35-22.05 19.8-21.9L19.8-21.9Q13.8-20.5 10.1-14.7L10.1-14.7Q7.25-10.2 7.25-5.65L7.25-5.65Q7.25 0.6 11.8 2.45L11.8 2.45Q13.3 3.1 15.08 3.1 16.85 3.1 18.7 2.65L18.7 2.65Q22.05 1.9 25.5-1.53 28.95-4.95 31.15-9.6 33.35-14.25 33.35-18.3L33.35-18.3Q33.35-23.6 30.2-26.2L30.2-26.2Q27.55-28.3 23.25-28.3L23.25-28.3Q22.6-28.3 21.85-28.25L21.85-28.25Q16.3-27.9 11.6-24.5L11.6-24.5Q8.15-22.1 5.8-18.55 3.45-15 3.2-11.5L3.2-11.5Q3.15-10.7 2.73-11.13 2.3-11.55 2.3-12.4L2.3-12.4Q2.3-16 4.42-19.48 6.55-22.95 10.1-25.5L10.1-25.5Q12.6-27.3 15.83-28.38 19.05-29.45 22-29.5L22-29.5Q28.15-29.5 32-26.15 35.85-22.8 35.85-16.85ZM60.8-7Q60.05-5.65 58.1-3.55 56.15-1.45 54.6-0.3L54.6-0.3Q52.6 1.15 50.25 1.15L50.25 1.15Q49.8 1.15 49.07 0.73 48.35 0.3 48.1-0.5 47.85-1.3 47.85-2.05L47.85-2.05Q47.85-4.65 48.85-7.2L48.85-7.2Q48.7-7.1 47.47-5.08 46.25-3.05 44.47-1.25 42.7 0.55 40.9 0.55L40.9 0.55Q40.05 0.55 38.95 0.1L38.95 0.1Q36.95-0.8 36.95-3.2L36.95-3.2Q36.95-6.15 38.97-9.28 41-12.4 41.55-12.6L41.55-12.6Q42.3-12.8 42.97-12.8 43.65-12.8 44.35-12.53 45.05-12.25 44.15-11.6L44.15-11.6Q40.7-8.45 39.25-4.6L39.25-4.6Q38.7-3.1 38.7-2.08 38.7-1.05 39.22-0.75 39.75-0.45 40.25-0.45L40.25-0.45Q41.45-0.45 43.52-2.13 45.6-3.8 49.25-9.1L49.25-9.1Q49.75-9.85 51-12.03 52.25-14.2 52.5-14.6L52.5-14.6Q53.3-14.6 54.37-14.23 55.45-13.85 55.1-13.25L55.1-13.25Q52.7-9.25 51.72-7.35 50.75-5.45 50.4-2.9L50.4-2.9Q50.35-2.45 50.35-1.75 50.35-1.05 50.75-0.6L50.75-0.6Q51.5 0.2 52.82-0.53 54.15-1.25 56.45-3.33 58.75-5.4 60.15-7.4L60.15-7.4Q60.35-7.65 60.62-7.53 60.9-7.4 60.9-7.28 60.9-7.15 60.8-7L60.8-7ZM60.05 0.5L60.05 0.5Q59.4 1.25 59.77 1.7 60.15 2.15 60.62 2.15 61.1 2.15 61.6 2L61.6 2Q63.75 1.35 65.77-0.58 67.8-2.5 67.8-4.5L67.8-4.5Q67.8-5.6 65.35-6.9L65.35-6.9Q64.2-7.5 64.05-7.6L64.05-7.6Q62.7-8.5 62.35-9.4L62.35-9.4Q61.65-8.2 60.1-5.95L60.1-5.95Q59.75-5.55 59.45-5.78 59.15-6 59.4-6.4L59.4-6.4Q61.45-9.2 62.1-11.1L62.1-11.1Q62.45-13.85 66.1-16.05 69.75-18.25 72.75-18.25L72.75-18.25Q74.65-18.25 75.42-17.57 76.2-16.9 76.2-16.25 76.2-15.6 75.82-14.75 75.45-13.9 74.3-13.15L74.3-13.15Q74-12.95 73.8-13.25L73.8-13.25Q73.7-13.55 74.22-14.08 74.75-14.6 74.9-15.5 75.05-16.4 74.1-16.6L74.1-16.6Q73.95-16.6 73.8-16.6L73.8-16.6Q71.85-16.6 68.92-15.15 66-13.7 64.35-11.4L64.35-11.4Q63.7-10.55 63.7-9.68 63.7-8.8 64.9-8.1L64.9-8.1Q65.4-7.8 66.6-7.15 67.8-6.5 68.3-6.2 68.8-5.9 69.5-5.25 70.2-4.6 70.25-4.05L70.25-4.05Q70.5-2.55 68.85-0.75L68.85-0.75Q66.5 1.85 61.85 2.9L61.85 2.9Q60.8 3.15 59.72 3.15 58.65 3.15 58.25 2.35L58.25 2.35Q58.1 2.15 58.1 1.73 58.1 1.3 58.9 0.35L58.9 0.35Q59.65-0.4 61.3-1.1L61.3-1.1Q61.45-1.15 61.55-1.05 61.65-0.95 61.6-0.8 61.55-0.65 61.07-0.45 60.6-0.25 60.05 0.5ZM74.84 0.5L74.84 0.5Q74.19 1.25 74.57 1.7 74.94 2.15 75.42 2.15 75.89 2.15 76.39 2L76.39 2Q78.54 1.35 80.57-0.58 82.59-2.5 82.59-4.5L82.59-4.5Q82.59-5.6 80.14-6.9L80.14-6.9Q78.99-7.5 78.84-7.6L78.84-7.6Q77.49-8.5 77.14-9.4L77.14-9.4Q76.44-8.2 74.89-5.95L74.89-5.95Q74.54-5.55 74.24-5.78 73.94-6 74.19-6.4L74.19-6.4Q76.24-9.2 76.89-11.1L76.89-11.1Q77.24-13.85 80.89-16.05 84.54-18.25 87.54-18.25L87.54-18.25Q89.44-18.25 90.22-17.57 90.99-16.9 90.99-16.25 90.99-15.6 90.62-14.75 90.24-13.9 89.09-13.15L89.09-13.15Q88.79-12.95 88.59-13.25L88.59-13.25Q88.49-13.55 89.02-14.08 89.54-14.6 89.69-15.5 89.84-16.4 88.89-16.6L88.89-16.6Q88.74-16.6 88.59-16.6L88.59-16.6Q86.64-16.6 83.72-15.15 80.79-13.7 79.14-11.4L79.14-11.4Q78.49-10.55 78.49-9.68 78.49-8.8 79.69-8.1L79.69-8.1Q80.19-7.8 81.39-7.15 82.59-6.5 83.09-6.2 83.59-5.9 84.29-5.25 84.99-4.6 85.04-4.05L85.04-4.05Q85.29-2.55 83.64-0.75L83.64-0.75Q81.29 1.85 76.64 2.9L76.64 2.9Q75.59 3.15 74.52 3.15 73.44 3.15 73.04 2.35L73.04 2.35Q72.89 2.15 72.89 1.73 72.89 1.3 73.69 0.35L73.69 0.35Q74.44-0.4 76.09-1.1L76.09-1.1Q76.24-1.15 76.34-1.05 76.44-0.95 76.39-0.8 76.34-0.65 75.87-0.45 75.39-0.25 74.84 0.5ZM91.64 0.55L91.64 0.55Q90.84 0.55 89.92 0.08 88.99-0.4 88.34-1.28 87.69-2.15 87.69-3.15 87.69-4.15 88.14-5.05L88.14-5.05Q89.14-7.15 91.37-9.13 93.59-11.1 95.99-12.5 98.39-13.9 99.79-14.25 101.19-14.6 102.52-14.6 103.84-14.6 104.79-13.93 105.74-13.25 105.74-12.5L105.74-12.5Q105.74-12.25 105.69-12.2 105.64-12.15 105.44-12.25L105.44-12.25Q104.84-13.2 102.97-13.2 101.09-13.2 98.72-11.98 96.34-10.75 94.24-8.9L94.24-8.9Q92.49-7.25 91.17-5.18 89.84-3.1 89.84-2.15L89.84-2.15Q89.84-0.3 90.89-0.3 91.94-0.3 94.09-2L94.09-2Q97.64-5 98.94-6.4L98.94-6.4Q103.54-11.35 103.89-11.35L103.89-11.35Q104.49-11.35 105.34-11 106.19-10.65 105.89-10.15L105.89-10.15Q103.34-6.55 102.89-2.9L102.89-2.9Q102.84-2.45 102.84-1.75 102.84-1.05 103.24-0.6L103.24-0.6Q103.99 0.2 105.29-0.5 106.59-1.2 108.92-3.3 111.24-5.4 112.64-7.4L112.64-7.4Q112.84-7.65 113.09-7.53 113.34-7.4 113.34-7.3L113.34-7.3Q113.34-6.55 110.97-4.03 108.59-1.5 107.34-0.6L107.34-0.6Q104.99 1.15 102.99 1.15L102.99 1.15Q101.09 1.15 100.44-0.75L100.44-0.75Q100.29-1.35 100.29-2.1L100.29-2.1Q100.29-4.35 101.24-6.85L101.24-6.85Q101.04-6.75 99.39-4.85 97.74-2.95 95.57-1.2 93.39 0.55 91.64 0.55ZM118.54-13L118.54-13Q118.54-12.65 117.99-11.48 117.44-10.3 114.84-3.4L114.84-3.4Q116.64-5.6 119.39-8.5L119.39-8.5Q124.94-14.3 127.04-14.3L127.04-14.3Q127.49-14.3 127.91-14.05 128.34-13.8 128.34-12.93 128.34-12.05 127.79-10.98 127.24-9.9 126.54-8.35 125.84-6.8 125.59-6.4L125.59-6.4Q129.79-10.2 131.94-11.03 134.09-11.85 134.79-11.85 135.49-11.85 135.49-11.35L135.49-11.35Q135.49-11.05 134.74-9.9 133.99-8.75 133.09-6.5 132.19-4.25 132.09-3.35 131.99-2.45 131.99-1.75 131.99-1.05 132.39-0.6L132.39-0.6Q133.14 0.2 134.44-0.5 135.74-1.2 138.06-3.3 140.39-5.4 141.79-7.4L141.79-7.4Q141.99-7.65 142.26-7.53 142.54-7.4 142.54-7.28 142.54-7.15 142.44-7L142.44-7Q141.69-5.65 139.74-3.55L139.74-3.55Q136.54-0.1 134.39 0.7L134.39 0.7Q132.04 1.5 130.99 0.9 129.94 0.3 129.69-0.45 129.44-1.2 129.44-1.95L129.44-1.95Q129.44-4.3 130.36-6.65 131.29-9 131.84-9.85L131.84-9.85Q129.94-9.05 128.59-7.85L128.59-7.85Q126.54-6.05 125.29-4.7L125.29-4.7 124.29-3.6Q123.84-2.5 122.71-2.35 121.59-2.2 121.64-3.1L121.64-3.1Q121.74-4.05 123.49-7.35 125.24-10.65 125.24-11.03 125.24-11.4 124.84-11.4L124.84-11.4Q123.94-11.4 121.59-9.35L121.59-9.35Q120.04-7.9 117.01-3.88 113.99 0.15 113.59 0.4L113.59 0.4Q111.79 1.3 111.34 1.3 110.89 1.3 110.89 1.15 110.89 1 111.04 0.7 111.19 0.4 114.09-8L114.09-8Q112.99-6.3 112.09-5.4L112.09-5.4Q111.69-4.95 111.69-5.58 111.69-6.2 112.04-6.65L112.04-6.65Q114.29-9.6 115.34-11.65L115.34-11.65Q115.64-13.4 116.54-13.7L116.54-13.7Q117.09-13.9 117.81-13.7 118.54-13.5 118.54-13ZM143.69 0.55L143.69 0.55Q142.88 0.55 141.96 0.08 141.03-0.4 140.38-1.28 139.74-2.15 139.74-3.15 139.74-4.15 140.19-5.05L140.19-5.05Q141.19-7.15 143.41-9.13 145.63-11.1 148.03-12.5 150.44-13.9 151.84-14.25 153.24-14.6 154.56-14.6 155.88-14.6 156.84-13.93 157.78-13.25 157.78-12.5L157.78-12.5Q157.78-12.25 157.74-12.2 157.69-12.15 157.49-12.25L157.49-12.25Q156.88-13.2 155.01-13.2 153.13-13.2 150.76-11.98 148.38-10.75 146.28-8.9L146.28-8.9Q144.53-7.25 143.21-5.18 141.88-3.1 141.88-2.15L141.88-2.15Q141.88-0.3 142.94-0.3 143.99-0.3 146.13-2L146.13-2Q149.69-5 150.99-6.4L150.99-6.4Q155.59-11.35 155.94-11.35L155.94-11.35Q156.53-11.35 157.38-11 158.24-10.65 157.94-10.15L157.94-10.15Q155.38-6.55 154.94-2.9L154.94-2.9Q154.88-2.45 154.88-1.75 154.88-1.05 155.28-0.6L155.28-0.6Q156.03 0.2 157.34-0.5 158.63-1.2 160.96-3.3 163.28-5.4 164.69-7.4L164.69-7.4Q164.88-7.65 165.13-7.53 165.38-7.4 165.38-7.3L165.38-7.3Q165.38-6.55 163.01-4.03 160.63-1.5 159.38-0.6L159.38-0.6Q157.03 1.15 155.03 1.15L155.03 1.15Q153.13 1.15 152.49-0.75L152.49-0.75Q152.34-1.35 152.34-2.1L152.34-2.1Q152.34-4.35 153.28-6.85L153.28-6.85Q153.09-6.75 151.44-4.85 149.78-2.95 147.61-1.2 145.44 0.55 143.69 0.55Z" opacity="1" transform="matrix(1,0,0,1,0,0)" fill="black" class="wordmark-text-0" id="SvgjsPath1145" stroke-width="5" stroke="black" stroke-linejoin="round"></path></svg></g></svg></g></svg></g></svg></g><g></g></svg></g></svg></g></svg></g></mask><g mask="url(#25f7a030-5322-41ec-a578-95518f0a1e12)"><g><path d="M320.628 92.654v0c0 36.378-12.574 68.899-37.721 97.562-25.147 28.712-53.102 46.608-83.865 53.688v0c-9.033 2.197-17.701 3.296-26.002 3.296v0c-22.706 0-41.505-8.423-56.398-25.269-14.893-16.846-22.34-38.087-22.34-63.723v0c0-33.937 11.597-62.014 34.791-84.231v0c14.649-14.161 32.594-23.804 53.835-28.932v0c6.348-1.221 12.207-1.831 17.579-1.831v0c12.207 0 21.119 2.857 26.734 8.57 5.615 5.762 7.202 8.643 4.761 8.643v0l-5.86-2.93c-5.127-1.953-9.571-2.93-13.33-2.93-3.809 0-7.056 0.366-9.742 1.099v0c-29.298 6.836-52.98 24.415-71.047 52.736v0c-13.916 21.973-20.875 44.069-20.875 66.286v0c0 30.519 11.109 50.295 33.327 59.328v0c7.324 3.174 15.332 4.761 24.024 4.761 8.643 0 17.481-1.099 26.514-3.296v0c16.358-3.662 32.96-13.868 49.807-30.616 16.846-16.7 30.641-36.402 41.383-59.109 10.743-22.706 16.114-43.947 16.113-63.722v0c0-25.88-7.691-45.167-23.072-57.863v0c-12.94-10.254-29.908-15.381-50.904-15.382v0c-3.174 0-6.592 0.122-10.255 0.367v0c-27.1 1.709-52.126 10.865-75.075 27.466v0c-16.846 11.719-31.007 26.246-42.482 43.581-11.475 17.335-17.823 34.547-19.044 51.637v0c-0.244 3.906-1.392 4.81-3.442 2.71-2.1-2.051-3.15-5.152-3.15-9.302v0c0-17.579 5.176-34.864 15.528-51.857 10.401-16.944 24.268-31.642 41.603-44.093v0c12.207-8.789 26.197-15.821 41.969-21.095 15.723-5.225 30.787-7.959 45.192-8.203v0c30.03 0 54.445 8.179 73.244 24.537 18.799 16.358 28.199 39.064 28.2 68.117z" fill="#000000" fill-rule="nonzero" stroke="none" stroke-width="1" stroke-linecap="butt" stroke-linejoin="miter" stroke-miterlimit="10" stroke-dasharray="" stroke-dashoffset="0" font-family="none" font-weight="none" font-size="none" text-anchor="none" style="mix-blend-mode: normal" data-fill-palette-color="tertiary"></path></g></g><g transform="matrix(1,0,0,1,2.842170943040401e-14,78.01284949434861)"><svg viewBox="0 0 395.5199999999999 91.17430101130277" height="91.17430101130277" width="395.5199999999999"><g><svg viewBox="0 0 395.5199999999999 91.17430101130277" height="91.17430101130277" width="395.5199999999999"><g><svg viewBox="0 0 395.5199999999999 91.17430101130277" height="91.17430101130277" width="395.5199999999999"><g><svg viewBox="0 0 395.5199999999999 91.17430101130277" height="91.17430101130277" width="395.5199999999999"><g id="textblocktransform"><svg viewBox="0 0 395.5199999999999 91.17430101130277" height="91.17430101130277" width="395.5199999999999" id="textblock"><g><svg viewBox="0 0 395.5199999999999 91.17430101130277" height="91.17430101130277" width="395.5199999999999"><g transform="matrix(1,0,0,1,0,0)"><svg width="395.5199999999999" viewBox="-0.7000000000000002 -32.5 169.07999999999998 39.75" height="91.17430101130277" data-palette-color="#ffffff"><path d="M35.85-16.85L35.85-16.85Q35.85-9.4 30.7-3.53 25.55 2.35 19.25 3.8L19.25 3.8Q17.4 4.25 15.7 4.25L15.7 4.25Q11.05 4.25 8 0.8 4.95-2.65 4.95-7.9L4.95-7.9Q4.95-14.85 9.7-19.4L9.7-19.4Q12.7-22.3 17.05-23.35L17.05-23.35Q18.35-23.6 19.45-23.6L19.45-23.6Q21.95-23.6 23.1-22.43 24.25-21.25 23.75-21.25L23.75-21.25 22.95-21.65Q21.9-22.05 21.13-22.05 20.35-22.05 19.8-21.9L19.8-21.9Q13.8-20.5 10.1-14.7L10.1-14.7Q7.25-10.2 7.25-5.65L7.25-5.65Q7.25 0.6 11.8 2.45L11.8 2.45Q13.3 3.1 15.08 3.1 16.85 3.1 18.7 2.65L18.7 2.65Q22.05 1.9 25.5-1.53 28.95-4.95 31.15-9.6 33.35-14.25 33.35-18.3L33.35-18.3Q33.35-23.6 30.2-26.2L30.2-26.2Q27.55-28.3 23.25-28.3L23.25-28.3Q22.6-28.3 21.85-28.25L21.85-28.25Q16.3-27.9 11.6-24.5L11.6-24.5Q8.15-22.1 5.8-18.55 3.45-15 3.2-11.5L3.2-11.5Q3.15-10.7 2.73-11.13 2.3-11.55 2.3-12.4L2.3-12.4Q2.3-16 4.42-19.48 6.55-22.95 10.1-25.5L10.1-25.5Q12.6-27.3 15.83-28.38 19.05-29.45 22-29.5L22-29.5Q28.15-29.5 32-26.15 35.85-22.8 35.85-16.85ZM60.8-7Q60.05-5.65 58.1-3.55 56.15-1.45 54.6-0.3L54.6-0.3Q52.6 1.15 50.25 1.15L50.25 1.15Q49.8 1.15 49.07 0.73 48.35 0.3 48.1-0.5 47.85-1.3 47.85-2.05L47.85-2.05Q47.85-4.65 48.85-7.2L48.85-7.2Q48.7-7.1 47.47-5.08 46.25-3.05 44.47-1.25 42.7 0.55 40.9 0.55L40.9 0.55Q40.05 0.55 38.95 0.1L38.95 0.1Q36.95-0.8 36.95-3.2L36.95-3.2Q36.95-6.15 38.97-9.28 41-12.4 41.55-12.6L41.55-12.6Q42.3-12.8 42.97-12.8 43.65-12.8 44.35-12.53 45.05-12.25 44.15-11.6L44.15-11.6Q40.7-8.45 39.25-4.6L39.25-4.6Q38.7-3.1 38.7-2.08 38.7-1.05 39.22-0.75 39.75-0.45 40.25-0.45L40.25-0.45Q41.45-0.45 43.52-2.13 45.6-3.8 49.25-9.1L49.25-9.1Q49.75-9.85 51-12.03 52.25-14.2 52.5-14.6L52.5-14.6Q53.3-14.6 54.37-14.23 55.45-13.85 55.1-13.25L55.1-13.25Q52.7-9.25 51.72-7.35 50.75-5.45 50.4-2.9L50.4-2.9Q50.35-2.45 50.35-1.75 50.35-1.05 50.75-0.6L50.75-0.6Q51.5 0.2 52.82-0.53 54.15-1.25 56.45-3.33 58.75-5.4 60.15-7.4L60.15-7.4Q60.35-7.65 60.62-7.53 60.9-7.4 60.9-7.28 60.9-7.15 60.8-7L60.8-7ZM60.05 0.5L60.05 0.5Q59.4 1.25 59.77 1.7 60.15 2.15 60.62 2.15 61.1 2.15 61.6 2L61.6 2Q63.75 1.35 65.77-0.58 67.8-2.5 67.8-4.5L67.8-4.5Q67.8-5.6 65.35-6.9L65.35-6.9Q64.2-7.5 64.05-7.6L64.05-7.6Q62.7-8.5 62.35-9.4L62.35-9.4Q61.65-8.2 60.1-5.95L60.1-5.95Q59.75-5.55 59.45-5.78 59.15-6 59.4-6.4L59.4-6.4Q61.45-9.2 62.1-11.1L62.1-11.1Q62.45-13.85 66.1-16.05 69.75-18.25 72.75-18.25L72.75-18.25Q74.65-18.25 75.42-17.57 76.2-16.9 76.2-16.25 76.2-15.6 75.82-14.75 75.45-13.9 74.3-13.15L74.3-13.15Q74-12.95 73.8-13.25L73.8-13.25Q73.7-13.55 74.22-14.08 74.75-14.6 74.9-15.5 75.05-16.4 74.1-16.6L74.1-16.6Q73.95-16.6 73.8-16.6L73.8-16.6Q71.85-16.6 68.92-15.15 66-13.7 64.35-11.4L64.35-11.4Q63.7-10.55 63.7-9.68 63.7-8.8 64.9-8.1L64.9-8.1Q65.4-7.8 66.6-7.15 67.8-6.5 68.3-6.2 68.8-5.9 69.5-5.25 70.2-4.6 70.25-4.05L70.25-4.05Q70.5-2.55 68.85-0.75L68.85-0.75Q66.5 1.85 61.85 2.9L61.85 2.9Q60.8 3.15 59.72 3.15 58.65 3.15 58.25 2.35L58.25 2.35Q58.1 2.15 58.1 1.73 58.1 1.3 58.9 0.35L58.9 0.35Q59.65-0.4 61.3-1.1L61.3-1.1Q61.45-1.15 61.55-1.05 61.65-0.95 61.6-0.8 61.55-0.65 61.07-0.45 60.6-0.25 60.05 0.5ZM74.84 0.5L74.84 0.5Q74.19 1.25 74.57 1.7 74.94 2.15 75.42 2.15 75.89 2.15 76.39 2L76.39 2Q78.54 1.35 80.57-0.58 82.59-2.5 82.59-4.5L82.59-4.5Q82.59-5.6 80.14-6.9L80.14-6.9Q78.99-7.5 78.84-7.6L78.84-7.6Q77.49-8.5 77.14-9.4L77.14-9.4Q76.44-8.2 74.89-5.95L74.89-5.95Q74.54-5.55 74.24-5.78 73.94-6 74.19-6.4L74.19-6.4Q76.24-9.2 76.89-11.1L76.89-11.1Q77.24-13.85 80.89-16.05 84.54-18.25 87.54-18.25L87.54-18.25Q89.44-18.25 90.22-17.57 90.99-16.9 90.99-16.25 90.99-15.6 90.62-14.75 90.24-13.9 89.09-13.15L89.09-13.15Q88.79-12.95 88.59-13.25L88.59-13.25Q88.49-13.55 89.02-14.08 89.54-14.6 89.69-15.5 89.84-16.4 88.89-16.6L88.89-16.6Q88.74-16.6 88.59-16.6L88.59-16.6Q86.64-16.6 83.72-15.15 80.79-13.7 79.14-11.4L79.14-11.4Q78.49-10.55 78.49-9.68 78.49-8.8 79.69-8.1L79.69-8.1Q80.19-7.8 81.39-7.15 82.59-6.5 83.09-6.2 83.59-5.9 84.29-5.25 84.99-4.6 85.04-4.05L85.04-4.05Q85.29-2.55 83.64-0.75L83.64-0.75Q81.29 1.85 76.64 2.9L76.64 2.9Q75.59 3.15 74.52 3.15 73.44 3.15 73.04 2.35L73.04 2.35Q72.89 2.15 72.89 1.73 72.89 1.3 73.69 0.35L73.69 0.35Q74.44-0.4 76.09-1.1L76.09-1.1Q76.24-1.15 76.34-1.05 76.44-0.95 76.39-0.8 76.34-0.65 75.87-0.45 75.39-0.25 74.84 0.5ZM91.64 0.55L91.64 0.55Q90.84 0.55 89.92 0.08 88.99-0.4 88.34-1.28 87.69-2.15 87.69-3.15 87.69-4.15 88.14-5.05L88.14-5.05Q89.14-7.15 91.37-9.13 93.59-11.1 95.99-12.5 98.39-13.9 99.79-14.25 101.19-14.6 102.52-14.6 103.84-14.6 104.79-13.93 105.74-13.25 105.74-12.5L105.74-12.5Q105.74-12.25 105.69-12.2 105.64-12.15 105.44-12.25L105.44-12.25Q104.84-13.2 102.97-13.2 101.09-13.2 98.72-11.98 96.34-10.75 94.24-8.9L94.24-8.9Q92.49-7.25 91.17-5.18 89.84-3.1 89.84-2.15L89.84-2.15Q89.84-0.3 90.89-0.3 91.94-0.3 94.09-2L94.09-2Q97.64-5 98.94-6.4L98.94-6.4Q103.54-11.35 103.89-11.35L103.89-11.35Q104.49-11.35 105.34-11 106.19-10.65 105.89-10.15L105.89-10.15Q103.34-6.55 102.89-2.9L102.89-2.9Q102.84-2.45 102.84-1.75 102.84-1.05 103.24-0.6L103.24-0.6Q103.99 0.2 105.29-0.5 106.59-1.2 108.92-3.3 111.24-5.4 112.64-7.4L112.64-7.4Q112.84-7.65 113.09-7.53 113.34-7.4 113.34-7.3L113.34-7.3Q113.34-6.55 110.97-4.03 108.59-1.5 107.34-0.6L107.34-0.6Q104.99 1.15 102.99 1.15L102.99 1.15Q101.09 1.15 100.44-0.75L100.44-0.75Q100.29-1.35 100.29-2.1L100.29-2.1Q100.29-4.35 101.24-6.85L101.24-6.85Q101.04-6.75 99.39-4.85 97.74-2.95 95.57-1.2 93.39 0.55 91.64 0.55ZM118.54-13L118.54-13Q118.54-12.65 117.99-11.48 117.44-10.3 114.84-3.4L114.84-3.4Q116.64-5.6 119.39-8.5L119.39-8.5Q124.94-14.3 127.04-14.3L127.04-14.3Q127.49-14.3 127.91-14.05 128.34-13.8 128.34-12.93 128.34-12.05 127.79-10.98 127.24-9.9 126.54-8.35 125.84-6.8 125.59-6.4L125.59-6.4Q129.79-10.2 131.94-11.03 134.09-11.85 134.79-11.85 135.49-11.85 135.49-11.35L135.49-11.35Q135.49-11.05 134.74-9.9 133.99-8.75 133.09-6.5 132.19-4.25 132.09-3.35 131.99-2.45 131.99-1.75 131.99-1.05 132.39-0.6L132.39-0.6Q133.14 0.2 134.44-0.5 135.74-1.2 138.06-3.3 140.39-5.4 141.79-7.4L141.79-7.4Q141.99-7.65 142.26-7.53 142.54-7.4 142.54-7.28 142.54-7.15 142.44-7L142.44-7Q141.69-5.65 139.74-3.55L139.74-3.55Q136.54-0.1 134.39 0.7L134.39 0.7Q132.04 1.5 130.99 0.9 129.94 0.3 129.69-0.45 129.44-1.2 129.44-1.95L129.44-1.95Q129.44-4.3 130.36-6.65 131.29-9 131.84-9.85L131.84-9.85Q129.94-9.05 128.59-7.85L128.59-7.85Q126.54-6.05 125.29-4.7L125.29-4.7 124.29-3.6Q123.84-2.5 122.71-2.35 121.59-2.2 121.64-3.1L121.64-3.1Q121.74-4.05 123.49-7.35 125.24-10.65 125.24-11.03 125.24-11.4 124.84-11.4L124.84-11.4Q123.94-11.4 121.59-9.35L121.59-9.35Q120.04-7.9 117.01-3.88 113.99 0.15 113.59 0.4L113.59 0.4Q111.79 1.3 111.34 1.3 110.89 1.3 110.89 1.15 110.89 1 111.04 0.7 111.19 0.4 114.09-8L114.09-8Q112.99-6.3 112.09-5.4L112.09-5.4Q111.69-4.95 111.69-5.58 111.69-6.2 112.04-6.65L112.04-6.65Q114.29-9.6 115.34-11.65L115.34-11.65Q115.64-13.4 116.54-13.7L116.54-13.7Q117.09-13.9 117.81-13.7 118.54-13.5 118.54-13ZM143.69 0.55L143.69 0.55Q142.88 0.55 141.96 0.08 141.03-0.4 140.38-1.28 139.74-2.15 139.74-3.15 139.74-4.15 140.19-5.05L140.19-5.05Q141.19-7.15 143.41-9.13 145.63-11.1 148.03-12.5 150.44-13.9 151.84-14.25 153.24-14.6 154.56-14.6 155.88-14.6 156.84-13.93 157.78-13.25 157.78-12.5L157.78-12.5Q157.78-12.25 157.74-12.2 157.69-12.15 157.49-12.25L157.49-12.25Q156.88-13.2 155.01-13.2 153.13-13.2 150.76-11.98 148.38-10.75 146.28-8.9L146.28-8.9Q144.53-7.25 143.21-5.18 141.88-3.1 141.88-2.15L141.88-2.15Q141.88-0.3 142.94-0.3 143.99-0.3 146.13-2L146.13-2Q149.69-5 150.99-6.4L150.99-6.4Q155.59-11.35 155.94-11.35L155.94-11.35Q156.53-11.35 157.38-11 158.24-10.65 157.94-10.15L157.94-10.15Q155.38-6.55 154.94-2.9L154.94-2.9Q154.88-2.45 154.88-1.75 154.88-1.05 155.28-0.6L155.28-0.6Q156.03 0.2 157.34-0.5 158.63-1.2 160.96-3.3 163.28-5.4 164.69-7.4L164.69-7.4Q164.88-7.65 165.13-7.53 165.38-7.4 165.38-7.3L165.38-7.3Q165.38-6.55 163.01-4.03 160.63-1.5 159.38-0.6L159.38-0.6Q157.03 1.15 155.03 1.15L155.03 1.15Q153.13 1.15 152.49-0.75L152.49-0.75Q152.34-1.35 152.34-2.1L152.34-2.1Q152.34-4.35 153.28-6.85L153.28-6.85Q153.09-6.75 151.44-4.85 149.78-2.95 147.61-1.2 145.44 0.55 143.69 0.55Z" opacity="1" transform="matrix(1,0,0,1,0,0)" fill="#000000" class="wordmark-text-0" data-fill-palette-color="primary" id="text-0"></path></svg></g></svg></g></svg></g></svg></g><g></g></svg></g></svg></g></svg></g></svg></g><defs></defs></svg><rect width="395.52" height="247.2" fill="none" stroke="none" visibility="hidden"></rect></g></svg></g></svg>